<?xml version="1.0" encoding="UTF-8"?>
<svg version="1.1" xmlns="http://www.w3.org/2000/svg" width="512" height="512">
	<!-- deno-fmt-ignore -->
	<style>
		#eyemask {
			fill: #000000;
		}

		@media (prefers-color-scheme: dark) {
			#eyemask {
				fill: #ffffff;
			}
		}
	</style>
	<path
		id="eyemask"
		d="M0 0 C1.60270752 -0.00101212 1.60270752 -0.00101212 3.23779297 -0.00204468 C39.14618875 0.03394174 74.90410096 3.80580223 106.875 21.25 C107.55820313 21.62253906 108.24140625 21.99507812 108.9453125 22.37890625 C123.78277061 30.57562936 137.86035614 40.22839994 150.41796875 51.640625 C153.65202126 53.7589551 156.02364329 54.16431909 159.875 54.25 C162.45748772 53.24765652 162.45748772 53.24765652 164.875 51.25 C165.44831055 50.81800293 166.02162109 50.38600586 166.61230469 49.94091797 C168.673047 48.37489886 170.71118882 46.78194601 172.75 45.1875 C185.49296871 35.35505551 198.70222818 26.86928213 212.875 19.25 C213.91398437 18.6828125 214.95296875 18.115625 216.0234375 17.53125 C260.72216301 -5.95655215 326.56877226 -5.50111794 375.03735352 4.64990234 C378.29189539 5.71269814 379.90340341 7.5390547 381.875 10.25 C389.34308408 39.81300738 371.81725523 86.24481584 358.875 112.25 C358.5126123 112.98573242 358.15022461 113.72146484 357.77685547 114.47949219 C353.21336725 123.66195176 348.32364066 132.23308738 341.875 140.25 C341.46523926 140.7651416 341.05547852 141.2802832 340.63330078 141.81103516 C321.42578785 165.81864587 296.51831667 181.37314282 265.6484375 184.9375 C232.95674314 187.6448867 198.2570385 178.87071065 168.609375 165.4375 C161.12612048 162.29747745 155.28327821 162.16618479 147.67578125 164.97265625 C145.84064021 165.73906318 144.01138776 166.519685 142.1875 167.3125 C105.15125164 182.51454962 60.65408334 193.48789863 21.875 178.25 C11.31019241 173.57682007 1.44403229 168.05187231 -7.125 160.25 C-8.07375 159.44175781 -9.0225 158.63351562 -10 157.80078125 C-47.96317162 125.00055221 -63.268453 68.88789658 -66.9375 20.75 C-67.04707031 19.4609375 -67.15664062 18.171875 -67.26953125 16.84375 C-67.10440199 12.73783338 -66.46449105 10.62119208 -64.125 7.25 C-59.1263345 3.74243565 -53.47870039 3.33867462 -47.5625 2.625 C-46.64919922 2.50382813 -45.73589844 2.38265625 -44.79492188 2.2578125 C-41.90780704 1.88710131 -39.01938555 1.55870889 -36.125 1.25 C-35.20106445 1.15138672 -34.27712891 1.05277344 -33.32519531 0.95117188 C-22.24405997 -0.06183557 -11.11799153 0.00631023 0 0 Z M7.41796875 70.45703125 C5.31316858 74.26698598 5.73869829 76.08505159 6.875 80.25 C8.08226389 82.79648453 9.27579337 85.06219752 10.75 87.4375 C11.14711182 88.08460938 11.54422363 88.73171875 11.95336914 89.3984375 C22.96928898 106.76124981 39.41652517 118.64504932 59.48828125 123.5546875 C72.75748282 125.98535408 89.45891824 126.16161328 101.875 120.25 C105.26423688 116.77703841 105.26423688 116.77703841 106 112.125 C103.91267356 102.59769812 97.13013414 94.41811229 90.875 87.25 C90.35550781 86.63511719 89.83601563 86.02023438 89.30078125 85.38671875 C78.43314686 73.47885739 61.21719532 65.37205574 45.24194336 64.02856445 C25.16376367 62.79585296 25.16376367 62.79585296 7.41796875 70.45703125 Z M228.875 83.25 C227.95847656 84.02730469 227.95847656 84.02730469 227.0234375 84.8203125 C219.6984756 91.47632811 213.84099692 101.27630445 209.875 110.25 C209.7033633 113.88239813 209.7033633 113.88239813 210.875 117.25 C220.04146643 125.90185779 234.45465512 124.89194462 246.26953125 124.59375 C265.84105545 123.67381937 282.7927837 114.06847592 296.0625 100 C301.64948099 93.4568965 310.22526846 83.08780762 309.6875 74.125 C308.80431396 70.99988018 308.36240331 70.21985443 305.875 68.25 C280.05118838 57.34418125 249.13551821 65.03747641 228.875 83.25 Z "
		fill="#000000"
		transform="translate(98.125,161.75)"
	/>
</svg>
